<svg width="540" height="594" viewBox="0 0 540 594" fill="none" xmlns="http://www.w3.org/2000/svg">
<path fill-rule="evenodd" clip-rule="evenodd" d="M162 324H108V378H162H216V432H270V378H324H378V324H324H270H216H162Z" fill="#FFBEB2"/>
<rect x="108" y="432" width="54" height="54" fill="#D9D9D9"/>
<rect x="108" y="432" width="54" height="54" fill="black"/>
<rect x="108" y="540" width="54" height="54" fill="#FA8A72"/>
<rect x="324" y="432" width="54" height="54" fill="black"/>
<rect x="216" y="486" width="54" height="54" fill="#FA8A72"/>
<rect x="432" y="486" width="54" height="54" fill="#FFBEB2"/>
<path fill-rule="evenodd" clip-rule="evenodd" d="M108 378H54V432V486V540H108H162H216V486H270V540H324H378H432V486H486V432H432V378H378H324H270V432H216V378H162H108ZM324 432V486H378V432H324ZM108 432H162V486H108V432Z" fill="white"/>
<rect x="378" y="540" width="54" height="54" fill="#FA8A72"/>
<path fill-rule="evenodd" clip-rule="evenodd" d="M162 540H216H270H324H378V594H324H270H216H162V540Z" fill="#FFBEB2"/>
<path fill-rule="evenodd" clip-rule="evenodd" d="M432 0H378H324V54H270H216H162H108V108H54V162V216H0V270V324H54V378H108V324H162H216H270H324H378V378H432V432H486H540V378V324V270V216V162H486V108V54H432V0Z" fill="black"/>
</svg>
